<svg xmlns="http://www.w3.org/2000/svg" xmlns:xlink="http://www.w3.org/1999/xlink" width="200" zoomAndPan="magnify" viewBox="0 0 150 60" height="80" preserveAspectRatio="xMidYMid meet" version="1.0"><defs><g/><clipPath id="28983326e5"><path d="M 14.867188 15.6875 L 42.617188 15.6875 L 42.617188 44.1875 L 14.867188 44.1875 Z M 14.867188 15.6875 " clip-rule="nonzero"/></clipPath></defs><g clip-path="url(#28983326e5)"><path fill="#00e365" d="M 27.933594 28.667969 L 24.210938 28.667969 L 24.070312 15.746094 L 28.074219 15.746094 Z M 30.179688 27.542969 L 29.058594 23.960938 L 41.277344 19.890625 L 42.46875 23.679688 Z M 28.285156 31.195312 L 27.160156 34.777344 L 14.871094 30.84375 L 16.066406 27.121094 Z M 32.078125 29.371094 L 35.097656 27.191406 L 42.75 37.515625 L 39.589844 39.832031 Z M 30.882812 31.546875 L 33.902344 33.722656 L 26.386719 44.257812 L 23.15625 41.941406 Z M 30.882812 31.546875 " fill-opacity="1" fill-rule="nonzero"/></g><g fill="#003c32" fill-opacity="1"><g transform="translate(46.156273, 43.607747)"><g><path d="M 0.636719 0 L 7.09375 0 L 7.09375 -1.945312 L 2.929688 -1.945312 L 2.929688 -9.269531 L 0.636719 -9.269531 Z M 0.636719 0 "/></g></g></g><g fill="#003c32" fill-opacity="1"><g transform="translate(53.361674, 43.607747)"><g><path d="M 3.746094 0.195312 C 4.589844 0.195312 5.265625 -0.0273438 5.820312 -0.414062 C 6.40625 -0.816406 6.792969 -1.386719 6.9375 -1.984375 L 4.875 -1.984375 C 4.695312 -1.570312 4.332031 -1.324219 3.773438 -1.324219 C 2.902344 -1.324219 2.410156 -1.878906 2.28125 -2.773438 L 7.054688 -2.773438 C 7.066406 -4.121094 6.675781 -5.277344 5.886719 -6.003906 C 5.316406 -6.523438 4.5625 -6.832031 3.617188 -6.832031 C 1.59375 -6.832031 0.207031 -5.316406 0.207031 -3.332031 C 0.207031 -1.324219 1.554688 0.195312 3.746094 0.195312 Z M 2.292969 -4.03125 C 2.4375 -4.824219 2.851562 -5.328125 3.65625 -5.328125 C 4.34375 -5.328125 4.835938 -4.824219 4.914062 -4.03125 Z M 2.292969 -4.03125 "/></g></g></g><g fill="#003c32" fill-opacity="1"><g transform="translate(60.50228, 43.607747)"><g><path d="M 3.332031 0.207031 C 5.070312 0.207031 6.351562 -0.542969 6.351562 -1.996094 C 6.351562 -3.695312 4.980469 -3.992188 3.8125 -4.1875 C 2.96875 -4.34375 2.21875 -4.410156 2.21875 -4.875 C 2.21875 -5.289062 2.617188 -5.484375 3.136719 -5.484375 C 3.722656 -5.484375 4.121094 -5.304688 4.199219 -4.707031 L 6.144531 -4.707031 C 6.042969 -6.015625 5.03125 -6.832031 3.152344 -6.832031 C 1.582031 -6.832031 0.285156 -6.105469 0.285156 -4.707031 C 0.285156 -3.152344 1.515625 -2.839844 2.671875 -2.644531 C 3.550781 -2.488281 4.355469 -2.425781 4.355469 -1.828125 C 4.355469 -1.398438 3.953125 -1.167969 3.320312 -1.167969 C 2.617188 -1.167969 2.179688 -1.492188 2.101562 -2.152344 L 0.105469 -2.152344 C 0.167969 -0.6875 1.386719 0.207031 3.332031 0.207031 Z M 3.332031 0.207031 "/></g></g></g><g fill="#003c32" fill-opacity="1"><g transform="translate(66.917151, 43.607747)"><g><path d="M 3.332031 0.207031 C 5.070312 0.207031 6.351562 -0.542969 6.351562 -1.996094 C 6.351562 -3.695312 4.980469 -3.992188 3.8125 -4.1875 C 2.96875 -4.34375 2.21875 -4.410156 2.21875 -4.875 C 2.21875 -5.289062 2.617188 -5.484375 3.136719 -5.484375 C 3.722656 -5.484375 4.121094 -5.304688 4.199219 -4.707031 L 6.144531 -4.707031 C 6.042969 -6.015625 5.03125 -6.832031 3.152344 -6.832031 C 1.582031 -6.832031 0.285156 -6.105469 0.285156 -4.707031 C 0.285156 -3.152344 1.515625 -2.839844 2.671875 -2.644531 C 3.550781 -2.488281 4.355469 -2.425781 4.355469 -1.828125 C 4.355469 -1.398438 3.953125 -1.167969 3.320312 -1.167969 C 2.617188 -1.167969 2.179688 -1.492188 2.101562 -2.152344 L 0.105469 -2.152344 C 0.167969 -0.6875 1.386719 0.207031 3.332031 0.207031 Z M 3.332031 0.207031 "/></g></g></g><g fill="#003c32" fill-opacity="1"><g transform="translate(73.332023, 43.607747)"><g><path d="M 3.746094 -1.296875 C 2.828125 -1.296875 2.347656 -2.101562 2.347656 -3.304688 C 2.347656 -4.511719 2.828125 -5.328125 3.746094 -5.328125 C 4.667969 -5.328125 5.160156 -4.511719 5.160156 -3.304688 C 5.160156 -2.101562 4.667969 -1.296875 3.746094 -1.296875 Z M 3.761719 0.207031 C 5.898438 0.207031 7.300781 -1.308594 7.300781 -3.304688 C 7.300781 -5.304688 5.898438 -6.820312 3.761719 -6.820312 C 1.632812 -6.820312 0.207031 -5.304688 0.207031 -3.304688 C 0.207031 -1.308594 1.632812 0.207031 3.761719 0.207031 Z M 3.761719 0.207031 "/></g></g></g><g fill="#003c32" fill-opacity="1"><g transform="translate(80.71886, 43.607747)"><g><path d="M 0.503906 0 L 2.617188 0 L 2.617188 -3.667969 C 2.617188 -4.484375 3.085938 -5.070312 3.785156 -5.070312 C 4.472656 -5.070312 4.824219 -4.589844 4.824219 -3.890625 L 4.824219 0 L 6.9375 0 L 6.9375 -4.316406 C 6.9375 -5.796875 6.082031 -6.832031 4.628906 -6.832031 C 3.707031 -6.832031 3.074219 -6.445312 2.582031 -5.730469 L 2.542969 -5.730469 L 2.542969 -6.636719 L 0.503906 -6.636719 Z M 0.503906 0 "/></g></g></g><g fill="#003c32" fill-opacity="1"><g transform="translate(89.282663, 43.129092)"><g><path d="M 0.632812 0 L 2.960938 0 L 2.960938 -3.089844 L 5.117188 -3.089844 C 7.019531 -3.089844 8.246094 -4.34375 8.246094 -6.113281 C 8.246094 -7.042969 7.910156 -7.832031 7.316406 -8.386719 C 6.746094 -8.929688 5.917969 -9.242188 4.796875 -9.242188 L 0.632812 -9.242188 Z M 2.960938 -4.898438 L 2.960938 -7.316406 L 4.652344 -7.316406 C 5.46875 -7.316406 5.945312 -6.863281 5.945312 -6.125 C 5.945312 -5.390625 5.480469 -4.898438 4.652344 -4.898438 Z M 2.960938 -4.898438 "/></g></g></g><g fill="#003c32" fill-opacity="1"><g transform="translate(97.538269, 43.129092)"><g><path d="M 0.515625 0 L 2.648438 0 L 2.648438 -9.242188 L 0.515625 -9.242188 Z M 0.515625 0 "/></g></g></g><g fill="#003c32" fill-opacity="1"><g transform="translate(100.535544, 43.129092)"><g><path d="M 2.457031 0.167969 C 3.449219 0.167969 4.03125 -0.179688 4.421875 -0.738281 L 4.445312 -0.738281 C 4.5 -0.402344 4.5625 -0.140625 4.667969 0 L 6.707031 0 L 6.707031 -0.0898438 C 6.527344 -0.207031 6.476562 -0.503906 6.476562 -1.035156 L 6.476562 -4.367188 C 6.476562 -5.195312 6.203125 -5.84375 5.636719 -6.257812 C 5.15625 -6.617188 4.484375 -6.796875 3.488281 -6.796875 C 1.488281 -6.796875 0.542969 -5.75 0.492188 -4.523438 L 2.429688 -4.523438 C 2.496094 -5.078125 2.832031 -5.378906 3.503906 -5.378906 C 4.136719 -5.378906 4.40625 -5.09375 4.40625 -4.667969 C 4.40625 -4.214844 3.96875 -4.085938 2.726562 -3.929688 C 1.355469 -3.75 0.195312 -3.308594 0.195312 -1.847656 C 0.195312 -0.542969 1.136719 0.167969 2.457031 0.167969 Z M 3.128906 -1.175781 C 2.609375 -1.175781 2.222656 -1.382812 2.222656 -1.914062 C 2.222656 -2.417969 2.558594 -2.625 3.375 -2.804688 C 3.800781 -2.910156 4.1875 -3.011719 4.460938 -3.152344 L 4.460938 -2.367188 C 4.460938 -1.65625 3.917969 -1.175781 3.128906 -1.175781 Z M 3.128906 -1.175781 "/></g></g></g><g fill="#003c32" fill-opacity="1"><g transform="translate(107.35706, 43.129092)"><g><path d="M 0.503906 0 L 2.609375 0 L 2.609375 -3.65625 C 2.609375 -4.472656 3.078125 -5.054688 3.773438 -5.054688 C 4.460938 -5.054688 4.808594 -4.574219 4.808594 -3.878906 L 4.808594 0 L 6.914062 0 L 6.914062 -4.304688 C 6.914062 -5.777344 6.0625 -6.8125 4.613281 -6.8125 C 3.695312 -6.8125 3.0625 -6.425781 2.570312 -5.714844 L 2.535156 -5.714844 L 2.535156 -6.617188 L 0.503906 -6.617188 Z M 0.503906 0 "/></g></g></g><g fill="#003c32" fill-opacity="1"><g transform="translate(114.553248, 43.129092)"><g><path d="M 0.503906 0 L 2.609375 0 L 2.609375 -3.65625 C 2.609375 -4.472656 3.078125 -5.054688 3.773438 -5.054688 C 4.460938 -5.054688 4.808594 -4.574219 4.808594 -3.878906 L 4.808594 0 L 6.914062 0 L 6.914062 -4.304688 C 6.914062 -5.777344 6.0625 -6.8125 4.613281 -6.8125 C 3.695312 -6.8125 3.0625 -6.425781 2.570312 -5.714844 L 2.535156 -5.714844 L 2.535156 -6.617188 L 0.503906 -6.617188 Z M 0.503906 0 "/></g></g></g><g fill="#003c32" fill-opacity="1"><g transform="translate(121.749437, 43.129092)"><g><path d="M 3.734375 0.195312 C 4.574219 0.195312 5.246094 -0.0273438 5.804688 -0.414062 C 6.386719 -0.8125 6.773438 -1.382812 6.914062 -1.976562 L 4.859375 -1.976562 C 4.679688 -1.5625 4.316406 -1.320312 3.761719 -1.320312 C 2.894531 -1.320312 2.402344 -1.875 2.273438 -2.765625 L 7.03125 -2.765625 C 7.042969 -4.109375 6.65625 -5.261719 5.867188 -5.984375 C 5.300781 -6.5 4.550781 -6.8125 3.605469 -6.8125 C 1.589844 -6.8125 0.207031 -5.300781 0.207031 -3.320312 C 0.207031 -1.320312 1.550781 0.195312 3.734375 0.195312 Z M 2.289062 -4.019531 C 2.429688 -4.808594 2.84375 -5.3125 3.644531 -5.3125 C 4.328125 -5.3125 4.820312 -4.808594 4.898438 -4.019531 Z M 2.289062 -4.019531 "/></g></g></g><g fill="#003c32" fill-opacity="1"><g transform="translate(128.816429, 43.129092)"><g><path d="M 0.503906 0 L 2.609375 0 L 2.609375 -2.972656 C 2.609375 -4.40625 3.4375 -5.039062 4.730469 -4.859375 L 4.78125 -4.859375 L 4.78125 -6.667969 C 4.691406 -6.707031 4.5625 -6.722656 4.367188 -6.722656 C 3.566406 -6.722656 3.023438 -6.371094 2.558594 -5.582031 L 2.519531 -5.582031 L 2.519531 -6.617188 L 0.503906 -6.617188 Z M 0.503906 0 "/></g></g></g><g fill="#003c32" fill-opacity="1"><g transform="translate(46.61196, 31.06002)"><g><path d="M -0.0195312 0 L 3.429688 0 L 4.226562 -2.5 L 9.074219 -2.5 L 9.886719 0 L 13.492188 0 L 8.492188 -13.863281 L 4.964844 -13.863281 Z M 5.019531 -4.964844 L 6.085938 -8.316406 C 6.320312 -9.035156 6.648438 -10.273438 6.648438 -10.273438 L 6.6875 -10.273438 C 6.6875 -10.273438 7 -9.035156 7.230469 -8.316406 L 8.277344 -4.964844 Z M 5.019531 -4.964844 "/></g></g></g><g fill="#003c32" fill-opacity="1"><g transform="translate(59.947327, 31.06002)"><g><path d="M 1.492188 0 L 4.652344 0 L 4.652344 -7.910156 L 6.515625 -7.910156 L 6.515625 -9.925781 L 4.652344 -9.925781 L 4.652344 -10.410156 C 4.652344 -11.515625 5.3125 -11.613281 6.515625 -11.574219 L 6.515625 -13.804688 C 4.808594 -13.976562 3.160156 -13.785156 2.308594 -12.949219 C 1.785156 -12.425781 1.492188 -11.671875 1.492188 -10.644531 L 1.492188 -9.925781 L 0.214844 -9.925781 L 0.214844 -7.910156 L 1.492188 -7.910156 Z M 1.492188 0 "/></g></g></g><g fill="#003c32" fill-opacity="1"><g transform="translate(66.537442, 31.06002)"><g><path d="M 1.492188 0 L 4.652344 0 L 4.652344 -7.910156 L 6.515625 -7.910156 L 6.515625 -9.925781 L 4.652344 -9.925781 L 4.652344 -10.410156 C 4.652344 -11.515625 5.3125 -11.613281 6.515625 -11.574219 L 6.515625 -13.804688 C 4.808594 -13.976562 3.160156 -13.785156 2.308594 -12.949219 C 1.785156 -12.425781 1.492188 -11.671875 1.492188 -10.644531 L 1.492188 -9.925781 L 0.214844 -9.925781 L 0.214844 -7.910156 L 1.492188 -7.910156 Z M 1.492188 0 "/></g></g></g><g fill="#003c32" fill-opacity="1"><g transform="translate(73.12756, 31.06002)"><g><path d="M 0.777344 0 L 3.972656 0 L 3.972656 -13.863281 L 0.777344 -13.863281 Z M 0.777344 0 "/></g></g></g><g fill="#003c32" fill-opacity="1"><g transform="translate(77.701855, 31.06002)"><g><path d="M 4.167969 0.289062 C 5.542969 0.289062 6.417969 -0.253906 7.132812 -1.222656 L 7.191406 -1.222656 L 7.191406 0 L 10.21875 0 L 10.21875 -9.925781 L 7.058594 -9.925781 L 7.058594 -4.382812 C 7.058594 -3.199219 6.398438 -2.382812 5.3125 -2.382812 C 4.304688 -2.382812 3.820312 -2.984375 3.820312 -4.070312 L 3.820312 -9.925781 L 0.679688 -9.925781 L 0.679688 -3.414062 C 0.679688 -1.203125 1.878906 0.289062 4.167969 0.289062 Z M 4.167969 0.289062 "/></g></g></g><g fill="#003c32" fill-opacity="1"><g transform="translate(88.498061, 31.06002)"><g><path d="M 0.136719 0 L 3.585938 0 L 5.390625 -2.964844 L 5.429688 -2.964844 L 7.058594 0 L 10.722656 0 L 7.347656 -5.253906 L 10.292969 -9.925781 L 6.980469 -9.925781 L 5.582031 -7.367188 L 5.542969 -7.367188 L 4.070312 -9.925781 L 0.464844 -9.925781 L 3.585938 -5.214844 Z M 0.136719 0 "/></g></g></g><g fill="#003c32" fill-opacity="1"><g transform="translate(99.177974, 31.06002)"><g/></g></g><g fill="#00e365" fill-opacity="1"><g transform="translate(102.018208, 31.06002)"><g><path d="M 0.234375 0 L 2.945312 0 L 8.125 -13.863281 L 5.410156 -13.863281 Z M 0.234375 0 "/></g></g></g></svg>